PathFileType	4	(X/Y/Z)	C:/Users/opensim2020/Desktop/walking_exp_matlab/subject06_walking12_static.trc	
DataRate	CameraRate	NumFrames	NumMarkers	Units	OrigDataRate	OrigDataStartFrame	OrigNumFrames	
100.00	100.00	4	48	mm	100.00	1	363	
Frame#	Time	LFHD			RFHD			LBHD			RBHD			C7			T10			CLAV			STRN			RBAK			LSHO			LUPA			LELB			LFRM			LWRA			LWRB			LFIN			RSHO			RUPA			RELB			RFRM			RWRA			RWRB			RFIN			LASI			RASI			LPSI			RPSI			LTHI			LKNE			LTIB			LANK			LHEE			LTOE			RTHI			RKNE			RTIB			RANK			RHEE			RTOE			*39			*40			*41			*42			*43			*44			*45			*46			*47			
		X1	Y1	Z1	X2	Y2	Z2	X3	Y3	Z3	X4	Y4	Z4	X5	Y5	Z5	X6	Y6	Z6	X7	Y7	Z7	X8	Y8	Z8	X9	Y9	Z9	X10	Y10	Z10	X11	Y11	Z11	X12	Y12	Z12	X13	Y13	Z13	X14	Y14	Z14	X15	Y15	Z15	X16	Y16	Z16	X17	Y17	Z17	X18	Y18	Z18	X19	Y19	Z19	X20	Y20	Z20	X21	Y21	Z21	X22	Y22	Z22	X23	Y23	Z23	X24	Y24	Z24	X25	Y25	Z25	X26	Y26	Z26	X27	Y27	Z27	X28	Y28	Z28	X29	Y29	Z29	X30	Y30	Z30	X31	Y31	Z31	X32	Y32	Z32	X33	Y33	Z33	X34	Y34	Z34	X35	Y35	Z35	X36	Y36	Z36	X37	Y37	Z37	X38	Y38	Z38	X39	Y39	Z39	X40	Y40	Z40	X41	Y41	Z41	X42	Y42	Z42	X43	Y43	Z43	X44	Y44	Z44	X45	Y45	Z45	X46	Y46	Z46	X47	Y47	Z47	X48	Y48	Z48	

1	0.000	401.35681	-658.33514	1679.83508	419.25745	-528.04120	1664.97107	530.26312	-677.83466	1617.57300	546.53827	-549.49451	1609.03296	530.25348	-619.23218	1460.13586	561.03040	-604.37524	1133.37866	416.65500	-608.07495	1389.63074	371.83548	-610.28625	1216.96387	605.81421	-538.05798	1291.33545	461.34842	-774.17377	1417.20691	449.07089	-846.75922	1215.62683	443.82904	-861.29572	1103.69421	394.39548	-887.29779	962.45349	311.87430	-848.70142	861.55286	370.77267	-885.51160	845.23694	312.76700	-888.95886	775.14539	475.80380	-453.22119	1420.44336	486.30786	-355.85269	1225.15918	454.06186	-328.00082	1110.76477	427.46219	-292.41589	997.49286	352.16873	-294.45160	861.41681	410.56622	-261.54456	863.28082	367.29935	-243.06168	793.00214	380.99435	-704.73621	975.04266	386.43079	-484.99573	982.52570	538.35168	-680.63800	1004.92841	535.69385	-514.45581	1011.06287	481.71234	-783.11652	666.61163	500.07059	-772.44464	503.18362	544.62994	-796.05017	252.27438	543.65521	-772.33813	74.62154	583.29138	-730.22925	56.08865	395.45578	-770.46027	39.25054	480.09055	-415.59854	651.15613	494.21689	-430.88638	526.00079	562.44818	-408.30219	269.91672	575.10211	-436.61044	78.73544	612.86908	-479.61288	51.15291	418.50522	-431.89917	35.96200	511.18854	-613.00616	1711.08008																								 
2	0.010	401.36401	-658.47339	1679.81824	419.08331	-528.10565	1664.97534	530.29767	-677.75348	1617.54968	546.42865	-549.44574	1609.06372	530.23120	-619.19910	1460.11792	560.99982	-604.39001	1133.34631	416.65027	-608.04755	1389.60486	371.77911	-610.28851	1216.94238	605.71765	-537.97314	1291.28503	461.35190	-774.12860	1417.18835	449.04630	-846.83643	1215.65295	443.77200	-861.47296	1103.72913	394.33386	-887.58661	962.49963	311.89914	-849.07275	861.52448	370.78857	-885.97198	845.31323	312.75357	-889.53558	775.20135	475.72888	-453.20630	1420.38403	486.21762	-355.80197	1225.15784	453.93576	-327.95697	1110.74683	427.30405	-292.30359	997.49860	352.01343	-294.30908	861.42139	410.41470	-261.43311	863.30005	367.15097	-243.05363	792.92609	380.93265	-704.71399	975.02008	386.39322	-485.05280	982.44824	538.25153	-680.64630	1004.91101	535.62274	-514.48669	1011.05481	481.64948	-783.12195	666.59631	500.04242	-772.47638	503.18112	544.52295	-795.91443	252.07777	543.66003	-772.35400	74.63024	583.31134	-730.22046	56.09999	395.61526	-770.63470	39.22768	480.03036	-415.59799	651.18103	494.20435	-430.91946	525.99219	562.44574	-408.29007	269.92264	575.11755	-436.58124	78.73911	612.87347	-479.59122	51.15088	418.54565	-431.81165	35.93471	511.10712	-612.98608	1711.07666																								 
3	0.020	401.34824	-658.55005	1679.79749	418.90997	-528.16199	1665.01343	530.30573	-677.68512	1617.54895	546.25452	-549.32990	1609.10962	530.35352	-619.35669	1460.12598	560.89697	-604.39447	1133.36047	416.61893	-608.05627	1389.57605	371.70856	-610.29529	1216.90894	605.64893	-537.90668	1291.20166	461.37149	-774.10809	1417.17126	449.01852	-846.91174	1215.66455	443.68744	-861.69940	1103.76794	394.24420	-887.86328	962.55389	311.86758	-849.48975	861.51117	370.74426	-886.45813	845.35492	312.69778	-890.01404	775.26392	475.66641	-453.17828	1420.35791	486.07474	-355.75824	1225.10767	453.69205	-327.54327	1110.91858	427.13156	-292.20251	997.51843	351.84683	-294.20477	861.45050	410.24326	-261.28815	863.32172	367.00723	-242.94441	792.92560	380.84390	-704.70221	975.02008	386.31714	-485.07193	982.49701	538.16461	-680.71204	1004.92053	535.55200	-514.51520	1011.04901	481.60272	-783.13446	666.59821	500.00192	-772.47614	503.20139	544.52417	-796.01215	252.13493	543.64276	-772.37677	74.64872	583.29260	-730.25323	56.11243	395.46042	-770.49518	39.23631	480.02957	-415.65094	651.16693	494.18701	-430.95630	526.00513	562.45496	-408.30484	269.94894	575.09857	-436.61890	78.78784	612.86053	-479.61963	51.15333	418.52411	-431.86798	35.90910	511.08871	-613.15393	1711.15649																								 
4	0.030	401.31259	-658.69165	1679.77234	418.70129	-528.26447	1665.06079	530.29260	-677.60596	1617.53772	546.01703	-549.35699	1609.21631	530.31030	-619.33746	1460.12781	560.74652	-604.38037	1133.35535	416.58743	-608.03595	1389.54749	371.62607	-610.26105	1216.88037	605.56812	-537.88660	1291.16821	461.36661	-774.08844	1417.14050	448.95871	-847.00909	1215.67139	443.59311	-861.86517	1103.79102	394.14795	-888.16522	962.61005	311.82578	-849.88947	861.48883	370.66425	-886.93597	845.42719	312.65088	-890.56366	775.34100	475.58450	-453.15335	1420.32495	485.95395	-355.72623	1225.08972	453.59766	-327.80609	1110.72681	426.95123	-292.07901	997.53473	351.65536	-294.05475	861.46338	410.01788	-261.08176	863.38184	366.75354	-242.46855	793.08667	380.75009	-704.71405	974.98138	386.25537	-484.97336	982.40466	538.05798	-680.73279	1004.94550	535.44458	-514.54382	1011.04590	481.49979	-783.13257	666.56396	499.98822	-772.48700	503.18723	544.57892	-796.13763	252.30762	543.63739	-772.34064	74.60771	583.29242	-730.25208	56.11961	395.60577	-770.62726	39.17403	480.01483	-415.67606	651.14771	494.17218	-430.96149	526.01184	562.43854	-408.31528	269.93457	575.08875	-436.59952	78.80991	612.85791	-479.64709	51.16341	418.48175	-431.67789	36.10453	510.97910	-613.14752	1711.12500																								 
